<svg xmlns="http://www.w3.org/2000/svg" width="35" height="28" viewBox="0 0 35 28">
  <metadata><?xpacket begin="﻿" id="W5M0MpCehiHzreSzNTczkc9d"?>
<x:xmpmeta xmlns:x="adobe:ns:meta/" x:xmptk="Adobe XMP Core 5.6-c142 79.160924, 2017/07/13-01:06:39        ">
   <rdf:RDF xmlns:rdf="http://www.w3.org/1999/02/22-rdf-syntax-ns#">
      <rdf:Description rdf:about=""/>
   </rdf:RDF>
</x:xmpmeta>
                                                                                                    
                                                                                                    
                                                                                                    
                                                                                                    
                                                                                                    
                                                                                                    
                                                                                                    
                                                                                                    
                                                                                                    
                                                                                                    
                                                                                                    
                                                                                                    
                                                                                                    
                                                                                                    
                                                                                                    
                                                                                                    
                                                                                                    
                                                                                                    
                                                                                                    
                                                                                                    
                           
<?xpacket end="w"?></metadata>
<defs>
    <style>
      .cls-13 {
        fill: #d5d5d5;
        fill-rule: evenodd;
      }
    </style>
  </defs>
  <path id="buffet" class="cls-13" d="M367,2489v26.96h4.1V2517h2.634v-1.04h21.408V2517h2.634v-1.04H402V2489H367Zm10.328,25.3h-8.655v-23.64h8.655v23.64Zm9.993,0h-9.157v-23.64h9.157v23.64Zm13.046,0H388.157v-7.27h12.209v7.27Zm0-8.1H388.157v-7.35h12.209v7.35Zm0-8.18H388.157v-7.36h12.209v7.36Zm-7.568-3.37h3.345a0.389,0.389,0,0,0,.418-0.41,0.4,0.4,0,0,0-.418-0.42H392.8a0.4,0.4,0,0,0-.418.42A0.412,0.412,0,0,0,392.8,2494.65Zm0,8.31h3.345a0.4,0.4,0,0,0,.418-0.42,0.389,0.389,0,0,0-.418-0.41H392.8a0.389,0.389,0,0,0-.418.41A0.421,0.421,0,0,0,392.8,2502.96Zm0,8.18h3.345a0.415,0.415,0,1,0,0-.83H392.8a0.4,0.4,0,0,0-.418.42A0.419,0.419,0,0,0,392.8,2511.14Zm-12.419-7.85a0.745,0.745,0,1,0-.752-0.75A0.746,0.746,0,0,0,380.379,2503.29Zm-5.268,0a0.745,0.745,0,1,0-.753-0.75A0.722,0.722,0,0,0,375.111,2503.29Z" transform="translate(-367 -2489)"/>
</svg>
