<svg xmlns="http://www.w3.org/2000/svg" width="45" height="22" viewBox="0 0 45 22">
  <metadata><?xpacket begin="﻿" id="W5M0MpCehiHzreSzNTczkc9d"?>
<x:xmpmeta xmlns:x="adobe:ns:meta/" x:xmptk="Adobe XMP Core 5.6-c142 79.160924, 2017/07/13-01:06:39        ">
   <rdf:RDF xmlns:rdf="http://www.w3.org/1999/02/22-rdf-syntax-ns#">
      <rdf:Description rdf:about=""/>
   </rdf:RDF>
</x:xmpmeta>
                                                                                                    
                                                                                                    
                                                                                                    
                                                                                                    
                                                                                                    
                                                                                                    
                                                                                                    
                                                                                                    
                                                                                                    
                                                                                                    
                                                                                                    
                                                                                                    
                                                                                                    
                                                                                                    
                                                                                                    
                                                                                                    
                                                                                                    
                                                                                                    
                                                                                                    
                                                                                                    
                           
<?xpacket end="w"?></metadata>
<defs>
    <style>
      .cls-co {
        fill: #d5d5d5;
        fill-rule: evenodd;
      }
    </style>
  </defs>
  <path id="computer" class="cls-co" d="M642.1,2515a0.778,0.778,0,0,1-.775-0.78v-2.13H623.5a0.77,0.77,0,0,1-.776-0.77v-14.83H605.671v17.73a0.776,0.776,0,1,1-1.552,0v-17.73h-2.343a0.779,0.779,0,0,1-.776-0.78v-1.93a0.779,0.779,0,0,1,.776-0.78h43.448a0.779,0.779,0,0,1,.776.78v1.93a0.779,0.779,0,0,1-.776.78H642.88v17.73A0.778,0.778,0,0,1,642.1,2515Zm-17.829-4.46h17.054v-6.25H624.275v6.25Zm0-7.8h17.054v-6.25H624.275v6.25Zm17.829-7.8h2.344v-0.39h-41.9v0.39H642.1Zm-8.286,13.25h-2.026a0.775,0.775,0,1,1,0-1.55h2.026A0.775,0.775,0,1,1,633.818,2508.19Zm0-7.8h-2.026a0.778,0.778,0,0,1-.776-0.78,0.769,0.769,0,0,1,.776-0.77h2.026a0.77,0.77,0,0,1,.776.77A0.779,0.779,0,0,1,633.818,2500.39Z" transform="translate(-601 -2493)"/>
</svg>
