<svg xmlns="http://www.w3.org/2000/svg" width="47" height="45.97" viewBox="0 0 47 45.97">
  <metadata><?xpacket begin="﻿" id="W5M0MpCehiHzreSzNTczkc9d"?>
<x:xmpmeta xmlns:x="adobe:ns:meta/" x:xmptk="Adobe XMP Core 5.6-c142 79.160924, 2017/07/13-01:06:39        ">
   <rdf:RDF xmlns:rdf="http://www.w3.org/1999/02/22-rdf-syntax-ns#">
      <rdf:Description rdf:about=""/>
   </rdf:RDF>
</x:xmpmeta>
                                                                                                    
                                                                                                    
                                                                                                    
                                                                                                    
                                                                                                    
                                                                                                    
                                                                                                    
                                                                                                    
                                                                                                    
                                                                                                    
                                                                                                    
                                                                                                    
                                                                                                    
                                                                                                    
                                                                                                    
                                                                                                    
                                                                                                    
                                                                                                    
                                                                                                    
                                                                                                    
                           
<?xpacket end="w"?></metadata>
<defs>
    <style>
      .cls-1 {
        fill: #4e9525;
        fill-rule: evenodd;
      }
    </style>
  </defs>
  <path id="Sale" class="cls-1" d="M913.482,2654.9a6.913,6.913,0,0,1-1.83-2.26,7.4,7.4,0,0,1,.152-3.07c0.293-1.71.6-3.43-.311-4.7s-2.644-1.53-4.306-1.76a6.994,6.994,0,0,1-2.862-.77,7.218,7.218,0,0,1-1.577-2.52c-0.714-1.53-1.469-3.1-2.988-3.65s-2.963.34-4.415,1.14a7.029,7.029,0,0,1-2.845,1.12,7.2,7.2,0,0,1-2.854-1.11c-1.452-.8-2.954-1.62-4.414-1.14s-2.275,2.11-3,3.66a7.013,7.013,0,0,1-1.577,2.52,6.85,6.85,0,0,1-2.862.78c-1.679.23-3.358,0.46-4.306,1.76s-0.613,3.01-.294,4.67a7.385,7.385,0,0,1,.16,3.06,6.935,6.935,0,0,1-1.838,2.27c-1.184,1.14-2.518,2.44-2.518,4.1s1.334,2.95,2.518,4.09a7.039,7.039,0,0,1,1.829,2.27,7.333,7.333,0,0,1-.151,3.06c-0.293,1.72-.6,3.43.311,4.7s2.644,1.53,4.305,1.77a6.688,6.688,0,0,1,2.862.77,7.029,7.029,0,0,1,1.578,2.52c0.73,1.56,1.486,3.16,3,3.66s2.962-.34,4.414-1.14a7.163,7.163,0,0,1,2.837-1.14,7.073,7.073,0,0,1,2.854,1.12,7.809,7.809,0,0,0,3.508,1.28,2.789,2.789,0,0,0,.906-0.14c1.519-.51,2.275-2.11,3-3.67a7.206,7.206,0,0,1,1.578-2.52,6.99,6.99,0,0,1,2.862-.77c1.679-.23,3.357-0.46,4.306-1.77s0.612-3.01.31-4.69a7.385,7.385,0,0,1-.159-3.06,6.993,6.993,0,0,1,1.821-2.25c1.175-1.14,2.518-2.43,2.518-4.09S914.665,2656.04,913.482,2654.9Zm-1.158,6.95a7.941,7.941,0,0,0-2.266,2.97,8.469,8.469,0,0,0,.109,3.9c0.235,1.32.478,2.68,0,3.37s-1.863.86-3.173,1.07a7.93,7.93,0,0,0-3.634,1.09,8.129,8.129,0,0,0-2.106,3.16c-0.579,1.24-1.175,2.51-2.006,2.78s-1.956-.39-3.1-1.02a5.709,5.709,0,0,0-7.3,0c-1.141.63-2.325,1.28-3.1,1.02s-1.427-1.55-2.006-2.78a8.129,8.129,0,0,0-2.106-3.16,7.93,7.93,0,0,0-3.635-1.09c-1.309-.18-2.668-0.37-3.172-1.07s-0.252-2.05,0-3.37a8.469,8.469,0,0,0,.109-3.9,7.941,7.941,0,0,0-2.266-2.97c-0.982-.95-2-1.93-2-2.85s1.016-1.9,1.99-2.86a7.962,7.962,0,0,0,2.266-2.97,8.439,8.439,0,0,0-.109-3.89c-0.235-1.32-.479-2.68,0-3.38s1.863-.85,3.172-1.07a7.808,7.808,0,0,0,3.634-1.09,8.059,8.059,0,0,0,2.107-3.16c0.587-1.23,1.208-2.5,2.048-2.77s1.955,0.39,3.1,1.01a8.03,8.03,0,0,0,3.617,1.32,7.922,7.922,0,0,0,3.651-1.32c1.141-.63,2.325-1.25,3.063-1.01s1.427,1.55,2.006,2.77a8.059,8.059,0,0,0,2.107,3.16,7.808,7.808,0,0,0,3.634,1.09c1.309,0.18,2.669.37,3.172,1.07s0.252,2.06,0,3.38a8.439,8.439,0,0,0-.109,3.89,7.962,7.962,0,0,0,2.266,2.97c1.016,0.96,2.031,1.93,2.031,2.86s-1.015,1.9-1.989,2.85h-0.008ZM892.5,2644.43A14.573,14.573,0,1,0,906.768,2659,14.419,14.419,0,0,0,892.5,2644.43Zm0,27.42A12.858,12.858,0,1,1,905.089,2659,12.719,12.719,0,0,1,892.5,2671.85Zm-3.357-14.57a3.426,3.426,0,1,0-3.357-3.42A3.388,3.388,0,0,0,889.143,2657.28Zm0-5.14a1.715,1.715,0,1,1-1.679,1.72A1.7,1.7,0,0,1,889.143,2652.14Zm6.714,7.71a3.431,3.431,0,1,0,3.357,3.43A3.4,3.4,0,0,0,895.857,2659.85Zm0,5.15a1.715,1.715,0,1,1,1.679-1.72A1.7,1.7,0,0,1,895.857,2665Zm1.318-13.56a0.826,0.826,0,0,0-1.167.22l-9.232,13.71a0.869,0.869,0,0,0,.232,1.19,0.828,0.828,0,0,0,1.153-.22l9.232-13.71A0.868,0.868,0,0,0,897.175,2651.44Z" transform="translate(-869 -2636)"/>
</svg>
