<svg xmlns="http://www.w3.org/2000/svg" width="39" height="27" viewBox="0 0 39 27">
  <metadata><?xpacket begin="﻿" id="W5M0MpCehiHzreSzNTczkc9d"?>
<x:xmpmeta xmlns:x="adobe:ns:meta/" x:xmptk="Adobe XMP Core 5.6-c142 79.160924, 2017/07/13-01:06:39        ">
   <rdf:RDF xmlns:rdf="http://www.w3.org/1999/02/22-rdf-syntax-ns#">
      <rdf:Description rdf:about=""/>
   </rdf:RDF>
</x:xmpmeta>
                                                                                                    
                                                                                                    
                                                                                                    
                                                                                                    
                                                                                                    
                                                                                                    
                                                                                                    
                                                                                                    
                                                                                                    
                                                                                                    
                                                                                                    
                                                                                                    
                                                                                                    
                                                                                                    
                                                                                                    
                                                                                                    
                                                                                                    
                                                                                                    
                                                                                                    
                                                                                                    
                           
<?xpacket end="w"?></metadata>
<defs>
    <style>
      .cls-bed {
        fill: #d5d5d5;
        fill-rule: evenodd;
      }
    </style>
  </defs>
  <path id="sleep" class="cls-bed" d="M758.285,2501.86h-0.159v-6.34a5.54,5.54,0,0,0-5.543-5.52H730.416a5.54,5.54,0,0,0-5.543,5.52v6.34h-0.158a2.7,2.7,0,0,0-2.715,2.66V2517h7.389v-1.02a1.435,1.435,0,0,1,1.438-1.43h21.346a1.435,1.435,0,0,1,1.438,1.43V2517H761v-12.48A2.7,2.7,0,0,0,758.285,2501.86Zm-32.18-6.34a4.3,4.3,0,0,1,4.311-4.29h22.167a4.3,4.3,0,0,1,4.311,4.29v6.34h-1.231v-0.2a4.72,4.72,0,0,0-4.722-4.71h-4.1a4.72,4.72,0,0,0-4.722,4.71v0.2h-1.231v-0.2a4.72,4.72,0,0,0-4.722-4.71h-4.1a4.72,4.72,0,0,0-4.723,4.71v0.2h-1.231v-6.34Zm28.326,6.34H743.347v-0.2a3.488,3.488,0,0,1,3.49-3.48h4.1a3.488,3.488,0,0,1,3.49,3.48v0.2Zm-14.779,0H728.568v-0.2a3.488,3.488,0,0,1,3.49-3.48h4.1a3.488,3.488,0,0,1,3.49,3.48v0.2h0Zm-14.937,1.23h33.57a1.458,1.458,0,0,1,1.483,1.43v5.52H723.231v-5.52A1.459,1.459,0,0,1,724.715,2503.09Zm30.118,12.68a2.665,2.665,0,0,0-2.661-2.45H730.827a2.666,2.666,0,0,0-2.662,2.45h-4.934v-4.5h36.537v4.5h-4.935Z" transform="translate(-722 -2490)"/>
</svg>
