<svg xmlns="http://www.w3.org/2000/svg" width="31" height="29" viewBox="0 0 31 29">
  <metadata><?xpacket begin="﻿" id="W5M0MpCehiHzreSzNTczkc9d"?>
<x:xmpmeta xmlns:x="adobe:ns:meta/" x:xmptk="Adobe XMP Core 5.6-c142 79.160924, 2017/07/13-01:06:39        ">
   <rdf:RDF xmlns:rdf="http://www.w3.org/1999/02/22-rdf-syntax-ns#">
      <rdf:Description rdf:about=""/>
   </rdf:RDF>
</x:xmpmeta>
                                                                                                    
                                                                                                    
                                                                                                    
                                                                                                    
                                                                                                    
                                                                                                    
                                                                                                    
                                                                                                    
                                                                                                    
                                                                                                    
                                                                                                    
                                                                                                    
                                                                                                    
                                                                                                    
                                                                                                    
                                                                                                    
                                                                                                    
                                                                                                    
                                                                                                    
                                                                                                    
                           
<?xpacket end="w"?></metadata>
<defs>
    <style>
      .cls-l1 {
        fill: #e5e5e5;
        fill-rule: evenodd;
      }
    </style>
  </defs>
  <path id="sofa_single" data-name="sofa single" class="cls-l1" d="M852.9,2518h-3.85a0.827,0.827,0,0,1-.812-0.64l-3.08-11.36a4.343,4.343,0,0,1,.77-3.8,4.27,4.27,0,0,1,3.464-1.71,4.373,4.373,0,0,1,4.363,4.35v12.3A0.862,0.862,0,0,1,852.9,2518Zm-3.165-1.71h2.352v-11.45a2.658,2.658,0,0,0-2.652-2.64,2.663,2.663,0,0,0-2.609,3.37Zm22.241,1.71h-3.85a0.862,0.862,0,0,1-.855-0.86v-12.3a4.363,4.363,0,0,1,7.827-2.64,4.449,4.449,0,0,1,.77,3.8l-3.08,11.36A0.827,0.827,0,0,1,871.971,2518Zm-2.994-1.71h2.352l2.866-10.72a2.619,2.619,0,0,0-.471-2.31,2.635,2.635,0,0,0-4.747,1.58v11.45Zm2.566-14.09H871.5a0.83,0.83,0,0,1-.77-0.9h0c0-.04.3-4.57-2.609-7.69a10.408,10.408,0,0,0-7.57-2.95q-4.941.135-7.571,2.95c-2.866,3.08-2.609,7.65-2.609,7.69a0.835,0.835,0,0,1-.813.9,0.8,0.8,0,0,1-.9-0.77c0-.22-0.342-5.3,3.037-8.93a11.808,11.808,0,0,1,8.041-3.46A0.578,0.578,0,0,1,860,2489h1.069a0.58,0.58,0,0,1,.257.04,11.81,11.81,0,0,1,8.041,3.46c3.379,3.63,3.036,8.71,3.036,8.93A0.881,0.881,0,0,1,871.543,2502.2Zm-3.422,6.1H852.9a0.855,0.855,0,1,1,0-1.71h15.183a0.862,0.862,0,0,1,.856.86A0.818,0.818,0,0,1,868.121,2508.3Zm0,6.71H852.9a0.855,0.855,0,1,1,0-1.71h15.183a0.854,0.854,0,0,1,.856.85A0.827,0.827,0,0,1,868.121,2515.01Z" transform="translate(-845 -2489)"/>
</svg>
