<svg xmlns="http://www.w3.org/2000/svg" width="58" height="28" viewBox="0 0 58 28">
  <metadata><?xpacket begin="﻿" id="W5M0MpCehiHzreSzNTczkc9d"?>
<x:xmpmeta xmlns:x="adobe:ns:meta/" x:xmptk="Adobe XMP Core 5.6-c142 79.160924, 2017/07/13-01:06:39        ">
   <rdf:RDF xmlns:rdf="http://www.w3.org/1999/02/22-rdf-syntax-ns#">
      <rdf:Description rdf:about=""/>
   </rdf:RDF>
</x:xmpmeta>
                                                                                                    
                                                                                                    
                                                                                                    
                                                                                                    
                                                                                                    
                                                                                                    
                                                                                                    
                                                                                                    
                                                                                                    
                                                                                                    
                                                                                                    
                                                                                                    
                                                                                                    
                                                                                                    
                                                                                                    
                                                                                                    
                                                                                                    
                                                                                                    
                                                                                                    
                                                                                                    
                           
<?xpacket end="w"?></metadata>
<defs>
    <style>
      .cls-c{
        fill: #e5e5e5;
        fill-rule: evenodd;
      }
    </style>
  </defs>
  <path id="sofa_classic" data-name="sofa classic" class="cls-c" d="M969.569,2496.71a0.99,0.99,0,1,1-1,.99,0.993,0.993,0,0,1,1-.99h0Zm20.858,0a0.99,0.99,0,1,1-1,.99,0.993,0.993,0,0,1,1-.99h0Zm13.3,20.14a0.988,0.988,0,0,1-1-.99v-0.32H981v0.32a1,1,0,0,1-2,0v-0.32H957.265v0.32a1,1,0,0,1-2,0v-0.32H954.84a0.993,0.993,0,0,1-1-.99v-8.89a3.8,3.8,0,0,1,1-7.48h3.306v-7.01a2.34,2.34,0,0,1,2.351-2.33h18.146a2.389,2.389,0,0,0,2.706,0H999.5a2.337,2.337,0,0,1,2.35,2.33v7.01h3.31a3.8,3.8,0,0,1,1,7.48v8.89a0.994,0.994,0,0,1-1,.99h-0.43v0.32A0.994,0.994,0,0,1,1003.73,2516.85Zm-47.89-3.29h48.32v-8.76a1,1,0,0,1,1-.99,1.825,1.825,0,1,0,0-3.65h-3.31v10.12a0.994,0.994,0,0,1-1,.99H959.145a0.993,0.993,0,0,1-1-.99v-10.12h-3.306a1.825,1.825,0,1,0,0,3.65,1,1,0,0,1,1,.99v8.76h0Zm4.3-4.27H999.85v-2.72H960.145v2.72Zm20.848-4.7H999.85v-13.42a0.355,0.355,0,0,0-.351-0.35H981.348a0.357,0.357,0,0,0-.355.35v13.42h0Zm-20.848,0h18.848v-13.42a0.353,0.353,0,0,0-.351-0.35H960.5a0.353,0.353,0,0,0-.351.35v13.42h0Z" transform="translate(-951 -2488.84)"/>
</svg>
