<svg xmlns="http://www.w3.org/2000/svg" width="58" height="25.84" viewBox="0 0 58 25.84">
  <metadata><?xpacket begin="﻿" id="W5M0MpCehiHzreSzNTczkc9d"?>
<x:xmpmeta xmlns:x="adobe:ns:meta/" x:xmptk="Adobe XMP Core 5.6-c142 79.160924, 2017/07/13-01:06:39        ">
   <rdf:RDF xmlns:rdf="http://www.w3.org/1999/02/22-rdf-syntax-ns#">
      <rdf:Description rdf:about=""/>
   </rdf:RDF>
</x:xmpmeta>
                                                                                                    
                                                                                                    
                                                                                                    
                                                                                                    
                                                                                                    
                                                                                                    
                                                                                                    
                                                                                                    
                                                                                                    
                                                                                                    
                                                                                                    
                                                                                                    
                                                                                                    
                                                                                                    
                                                                                                    
                                                                                                    
                                                                                                    
                                                                                                    
                                                                                                    
                                                                                                    
                           
<?xpacket end="w"?></metadata>
<defs>
    <style>
      .cls-sofa {
        fill: #e5e5e5;
      }
    </style>
  </defs>
  <path id="sofa" class="cls-sofa" d="M1075.08,2517.23a1,1,0,0,1-.93-1.36l0.26-.74h-0.84a1,1,0,0,1-1-1.01v-5.17a3.651,3.651,0,0,1-1.52-6.05,3.5,3.5,0,0,1,2.51-1.06h2.09v-8.45a1.985,1.985,0,0,1,1.96-2h42.78a1.993,1.993,0,0,1,1.97,2v8.45h2.08a3.52,3.52,0,0,1,2.51,1.06,3.651,3.651,0,0,1-1.52,6.05v5.17a1.007,1.007,0,0,1-1,1.02h-0.84l0.27,0.73a1.028,1.028,0,0,1-.6,1.3,0.991,0.991,0,0,1-1.28-.61l-0.52-1.43h-44.92l-0.52,1.43A0.984,0.984,0,0,1,1075.08,2517.23Zm47.1-4.13h1.25v-5.02a1.014,1.014,0,0,1,1-1.02,1.577,1.577,0,0,0,1.57-1.59,1.622,1.622,0,0,0-.46-1.13,1.55,1.55,0,0,0-1.11-.46h-2.07v7.11a1.014,1.014,0,0,1-1,1.02h-44.72a1.014,1.014,0,0,1-1-1.02v-7.11h-2.08a1.544,1.544,0,0,0-1.1.46,1.6,1.6,0,0,0,1.11,2.72,1.014,1.014,0,0,1,1,1.02v5.02h47.61Zm-44.53-3.12h42.71v-1.41h-42.71v1.41Zm0-3.45h42.71v-13.14l-42.75.03,0.02,9.28a0.875,0.875,0,0,1,.02.16v3.67h0Zm6.45-7.57a1,1,0,0,1,.7.3,1.021,1.021,0,0,1,.29.72,1.039,1.039,0,0,1-.29.72,1,1,0,0,1-1.41,0h0l-0.01-.01a1.051,1.051,0,0,1-.28-0.71,1.021,1.021,0,0,1,.29-0.72l0.01-.01a1.009,1.009,0,0,1,.7-0.29h0Zm14.9,0a1.007,1.007,0,0,1,1,1.02,1.039,1.039,0,0,1-.29.72,1.014,1.014,0,0,1-1.42,0h0v-0.01a1.026,1.026,0,0,1,0-1.43l0.02-.01a0.967,0.967,0,0,1,.69-0.29h0Zm14.91,0a1,1,0,0,1,.7.3,1.021,1.021,0,0,1,.29.72,1.039,1.039,0,0,1-.29.72,1,1,0,0,1-1.41,0h0l-0.01-.01a1.014,1.014,0,0,1-.29-0.71,1.029,1.029,0,0,1,.3-0.72l0.01-.01a0.991,0.991,0,0,1,.7-0.29h0Z" transform="translate(-1070 -2491.41)"/>
</svg>
