<svg xmlns="http://www.w3.org/2000/svg" width="37" height="28" viewBox="0 0 37 28">
  <metadata><?xpacket begin="﻿" id="W5M0MpCehiHzreSzNTczkc9d"?>
<x:xmpmeta xmlns:x="adobe:ns:meta/" x:xmptk="Adobe XMP Core 5.6-c142 79.160924, 2017/07/13-01:06:39        ">
   <rdf:RDF xmlns:rdf="http://www.w3.org/1999/02/22-rdf-syntax-ns#">
      <rdf:Description rdf:about=""/>
   </rdf:RDF>
</x:xmpmeta>
                                                                                                    
                                                                                                    
                                                                                                    
                                                                                                    
                                                                                                    
                                                                                                    
                                                                                                    
                                                                                                    
                                                                                                    
                                                                                                    
                                                                                                    
                                                                                                    
                                                                                                    
                                                                                                    
                                                                                                    
                                                                                                    
                                                                                                    
                                                                                                    
                                                                                                    
                                                                                                    
                           
<?xpacket end="w"?></metadata>
<defs>
    <style>
      .cls-14 {
        fill: #d5d5d5;
        fill-rule: evenodd;
      }
    </style>
  </defs>
  <path id="tv" class="cls-14" d="M519.6,2518a0.652,0.652,0,0,1-.638-0.66v-0.23H488.066v0.23a0.638,0.638,0,1,1-1.276,0v-0.23h-1.1a0.655,0.655,0,0,1-.695-0.66v-6.34a0.652,0.652,0,0,1,.638-0.66h2.607v-1.69h-2.607a0.655,0.655,0,0,1,0-1.31H500.91l0.43-1.44h-9.293a0.652,0.652,0,0,1-.638-0.66v-13.7a0.652,0.652,0,0,1,.638-0.66h22.906a0.652,0.652,0,0,1,.638.66v13.7a0.652,0.652,0,0,1-.638.66h-9.294l0.43,1.44h15.273a0.655,0.655,0,0,1,0,1.31h-2.607v1.69h2.607a0.652,0.652,0,0,1,.638.66v6.34a0.652,0.652,0,0,1-.638.66h-1.127v0.23A0.652,0.652,0,0,1,519.6,2518Zm-15.46-2.21h16.587v-5.02H504.137v5.02Zm-17.861,0h16.585v-5.02H486.276v5.02Zm3.245-6.34H517.48v-1.69H489.521v1.69Zm12.724-3h2.508l-0.429-1.44h-1.649Zm2.565-2.76h9.505v-12.38h-21.63v12.38H504.81Zm8.6,10.25h-1.947a0.66,0.66,0,0,1,0-1.32h1.947A0.66,0.66,0,0,1,513.406,2513.94Zm-17.864,0H493.6a0.66,0.66,0,0,1,0-1.32h1.947A0.66,0.66,0,0,1,495.542,2513.94Z" transform="translate(-485 -2490)"/>
</svg>
